<svg width="14" height="14" viewBox="0 0 14 14" fill="none" xmlns="http://www.w3.org/2000/svg">
<path d="M0.863141 0.863141C0.37895 1.34733 0.378956 2.13234 0.863141 2.61653L5.24661 7L0.863141 11.3835C0.37895 11.8677 0.378956 12.6527 0.863141 13.1369C1.34733 13.621 2.13234 13.621 2.61653 13.1369L7 8.75339L11.3835 13.1369C11.8677 13.621 12.6527 13.621 13.1369 13.1369C13.621 12.6527 13.621 11.8677 13.1369 11.3835L8.75339 7L13.1369 2.61653C13.621 2.13234 13.621 1.34733 13.1369 0.863141C12.6527 0.378956 11.8677 0.37895 11.3835 0.863141L7 5.24661L2.61653 0.863141C2.13234 0.378956 1.34733 0.37895 0.863141 0.863141Z" fill="white"/>
</svg>
