<svg width="66" height="40" viewBox="0 0 66 40" fill="none" xmlns="http://www.w3.org/2000/svg">
<g clip-path="url(#clip0_1_146)">
<path d="M3.96079 39.2388C0.426197 37.4579 -1.00701 33.1251 0.760288 29.5584L13.4461 3.99121C15.2134 0.424485 19.513 -1.01977 23.0476 0.761152C26.5822 2.54207 28.0154 6.87484 26.2481 10.4416L13.5623 36.0137C11.795 39.5755 7.49538 41.0198 3.95595 39.2388H3.96079Z" fill="white"/>
<path d="M26.6305 39.2388C23.0959 37.4579 21.6627 33.1251 23.43 29.5584L36.1158 3.98633C37.883 0.424482 42.1827 -1.01977 45.7221 0.76115C49.2567 2.54207 50.6899 6.87484 48.9226 10.4416L36.2368 36.0136C34.4695 39.5755 30.1699 41.0197 26.6305 39.2388Z" fill="white"/>
<path d="M56.4567 39.234C61.7274 39.234 66.0001 34.9283 66.0001 29.617C66.0001 24.3057 61.7274 20 56.4567 20C51.1861 20 46.9133 24.3057 46.9133 29.617C46.9133 34.9283 51.1861 39.234 56.4567 39.234Z" fill="white"/>
</g>
<defs>
<clipPath id="clip0_1_146">
<rect width="66" height="40" fill="white"/>
</clipPath>
</defs>
</svg>
