<svg width="402" height="442" viewBox="0 0 402 442" fill="none" xmlns="http://www.w3.org/2000/svg">
<g clip-path="url(#clip0_1_11)">
<path d="M399.292 455.288H2.71899C2.71899 443.467 3.75254 431.602 5.905 419.825C9.67917 399.035 16.8814 378.514 27.7011 359.018C44.6244 328.593 68.3603 304.364 95.9636 287.177C100.396 284.395 104.943 281.819 109.574 279.419C134.5 266.493 161.931 258.961 189.993 257.397C190.242 257.383 190.488 257.355 190.737 257.348C192.45 257.256 194.163 257.185 195.898 257.149C199.325 257.05 202.753 257.05 206.173 257.135C229.456 257.715 252.88 262.43 275.364 271.569C282.785 274.571 290.121 278.06 297.293 282.059C298.844 282.915 300.374 283.78 301.882 284.692C302.803 285.222 303.709 285.782 304.595 286.335C365.202 323.384 399.227 388.366 399.291 455.288H399.292Z" fill="#FFD243"/>
<path d="M22.2013 425.836C25.9754 405.046 33.1777 384.525 43.9974 365.03C60.9222 334.606 84.6566 310.376 112.26 293.188C116.692 290.407 121.239 287.83 125.87 285.43C150.796 272.504 178.227 264.973 206.29 263.409C206.538 263.395 206.785 263.367 207.033 263.359C208.746 263.268 210.46 263.196 212.195 263.161C215.621 263.061 219.049 263.061 222.47 263.147C240.27 263.59 258.152 266.46 275.635 271.867C274.771 271.502 273.905 271.144 273.038 270.793C250.555 261.654 227.13 256.94 203.849 256.359C200.428 256.274 197.002 256.274 193.574 256.373C191.839 256.409 190.125 256.479 188.412 256.572C188.164 256.58 187.917 256.608 187.669 256.622C159.606 258.185 132.174 265.717 107.249 278.643C102.618 281.043 98.071 283.62 93.6389 286.401C66.0372 303.589 42.3012 327.819 25.3764 358.242C14.5567 377.737 7.35446 398.258 3.58029 419.049C1.42784 430.828 0.394287 442.691 0.394287 454.513H19.1441C19.4669 444.942 20.4632 435.361 22.2044 425.836H22.2013Z" fill="#FCAC38"/>
<path d="M283.609 347.334C284.899 337.87 268.876 327.873 247.821 325.005C226.766 322.137 208.652 327.484 207.362 336.947C206.072 346.411 222.094 356.409 243.149 359.277C264.204 362.145 282.318 356.798 283.609 347.334Z" fill="#FFD243"/>
<path d="M376.641 455.285H329.954C337.439 442.124 347.962 433.247 357.756 433.222C367.452 433.197 374.566 442.148 376.641 455.285Z" fill="#FCAC38"/>
<path d="M112.086 353.583C122.945 352.887 131.267 344.816 130.673 335.556C130.079 326.296 120.794 319.353 109.935 320.05C99.0755 320.746 90.7541 328.817 91.3483 338.077C91.9424 347.337 101.227 354.279 112.086 353.583Z" fill="#FCAC38"/>
<path d="M119.495 353.677C127.163 350.84 131.523 343.527 129.234 337.342C126.944 331.157 118.871 328.444 111.203 331.281C103.535 334.118 99.1748 341.431 101.465 347.616C103.754 353.801 111.827 356.514 119.495 353.677Z" fill="#FFD243"/>
<path d="M111.597 355.295C102.837 356.497 92.8568 351.946 89.3806 343.405C85.4699 334.195 90.8394 323.888 99.3825 319.693C111.389 313.241 129.782 318.246 132.669 332.698C133.302 336.047 132.855 339.518 131.379 342.557C130.914 343.557 130.268 344.449 129.674 345.349C129.449 345.689 128.991 345.784 128.651 345.559C128.314 345.338 128.226 344.895 128.426 344.558C130.266 341.026 130.786 336.98 129.66 333.398C126.277 322.118 111.217 318.768 101.665 324.062C90.5631 329.91 89.4815 343.384 100.422 350.141C103.653 352.172 107.53 353.25 111.521 353.464C112.636 353.514 112.693 355.157 111.597 355.295Z" fill="#371A45"/>
<path d="M136.457 324.904C142.186 331.533 143.023 341.77 138.868 349.516C134.871 357.44 126.862 362.791 118.368 364.739C109.901 366.674 100.655 365.531 93.2168 360.943C85.8236 356.613 80.3734 348.32 80.839 339.645C80.8964 338.745 82.2109 338.708 82.3164 339.598C82.8316 343.505 84.3245 347.146 86.5965 350.188C97.1446 364.024 119.94 364.138 131.716 351.856C135.538 347.831 137.962 342.456 137.951 336.865C137.982 333.12 136.887 329.358 134.955 325.954C134.405 325.002 135.748 324.06 136.458 324.904H136.457Z" fill="#371A45"/>
<path d="M57.6059 382.141C83.4679 384.559 96.6077 412.355 89.9361 435.816C87.9404 443.383 84.2438 450.433 79.1552 456.151C78.8387 456.506 78.2939 456.539 77.9386 456.222C77.6297 455.948 77.5661 455.496 77.7648 455.15C81.4318 448.712 84.0499 441.841 85.3162 434.786C89.3961 413.163 79.2934 390.749 57.2117 384.231C56.0167 383.886 56.3364 382.032 57.6043 382.139L57.6059 382.141Z" fill="#371A45"/>
<path d="M72.7709 434.482C70.9552 443.421 65.941 450.768 59.3828 455.285H28.8387C19.588 448.568 14.6592 435.938 17.2912 422.924C20.7488 405.811 35.9789 394.527 51.3053 397.712C66.6208 400.909 76.23 417.367 72.7709 434.48V434.482Z" fill="#FCAC38"/>
<path d="M69.4372 440.585C66.4421 447.139 61.8314 452.179 56.5644 455.287H39.9515C31.6738 445.999 29.6548 430.568 35.8794 416.913C39.9019 408.121 46.5361 401.793 53.937 398.777C55.8071 399.175 57.6476 399.839 59.4105 400.78C71.9512 407.42 76.4408 425.237 69.4372 440.583V440.585Z" fill="#FFD243"/>
<path d="M17.527 417.27C24.0371 400.754 44.4009 390.602 60.5714 400.197C74.3521 408.376 77.3286 426.658 70.4522 440.389C69.4156 442.608 68.1213 444.688 66.6501 446.621C63.6845 450.467 59.9646 453.712 55.7296 455.904C54.8093 456.367 53.9884 455.088 54.8124 454.457C65.2038 446.568 71.1599 432.608 68.0391 419.812C66.9667 415.323 64.6762 411.028 61.2636 407.881C52.6056 399.511 38.8932 400.667 29.5603 407.417C25.5036 410.264 22.1656 413.956 19.4265 418.228C18.7638 419.325 17.0335 418.47 17.527 417.27Z" fill="#371A45"/>
<path d="M165.128 456.348C160.429 451.911 157.696 445.83 156.017 439.71C155.481 437.684 155.075 435.628 154.882 433.542C154.843 433.121 155.152 432.75 155.573 432.712C155.896 432.682 156.192 432.86 156.329 433.134L159.019 438.579C161.645 443.825 164.617 448.886 168.204 453.5C169.757 455.541 167.035 458.047 165.131 456.348H165.128Z" fill="#371A45"/>
<path d="M278.978 420.546C281.629 432.617 279.661 446.154 272.046 456.11C270.41 458.276 267.125 456.067 268.523 453.735C270.062 451.255 271.499 448.765 272.693 446.197C275.097 440.994 276.247 435.231 276.959 429.539C277.291 426.63 277.474 423.684 277.51 420.701C277.51 419.843 278.8 419.699 278.978 420.547V420.546Z" fill="#371A45"/>
<path d="M236.21 455.285H196.736C186.016 449.162 178.309 438.123 176.938 424.901C174.666 403.072 190.524 383.551 212.361 381.28C234.197 379.021 253.724 394.874 255.996 416.691C257.665 432.828 249.438 447.705 236.21 455.287V455.285Z" fill="#FCAC38"/>
<path d="M257.677 430.74C255.936 441.148 249.537 449.852 240.732 455.285H197.256C189.363 450.37 183.669 442.901 181.335 434.358C187.214 415.442 207.544 402.997 229.146 405.96C241.348 407.651 251.538 413.886 258.023 422.542C258.245 425.222 258.147 427.975 257.677 430.741V430.74Z" fill="#FFD243"/>
<path d="M221.557 381.722C238.643 383.157 254.522 396.893 256.69 414.303C258.931 428.596 251.293 443.385 239.13 450.895C221.385 462.352 196.178 458.828 182.921 442.165C171.557 428.371 172.023 407.968 184.529 395.085C185.263 394.338 186.416 395.357 185.772 396.171C183.283 399.316 181.331 402.837 180.04 406.561C177.476 413.943 177.544 422.195 180.456 429.427C191.108 456.348 230.224 460.135 246.381 436.466C255.439 423.377 253.281 405.698 241.911 394.598C236.426 389.051 229.104 385.34 221.261 383.748C220.002 383.494 220.272 381.612 221.559 381.72L221.557 381.722Z" fill="#371A45"/>
<path d="M276.534 346.52C283.493 341.944 288.67 335.753 291.168 328.249C295.696 314.651 290.178 300.652 278.329 289.011C270.556 281.373 259.965 275.093 247.483 271.403C215.977 262.085 184.357 272.788 176.858 295.308C174.068 303.686 175.012 312.521 178.918 320.793C185.512 334.75 200.76 346.303 220.544 352.153" fill="#FFD243"/>
<path d="M290.159 327.914C293.791 315.137 287.728 302.151 278.783 293.058C260.697 274.659 232.178 266.8 207.131 272.701C194.669 275.754 182.606 283.232 177.671 295.581C177.496 296.023 176.993 296.238 176.553 296.06C176.144 295.895 175.933 295.453 176.045 295.039C176.95 291.702 178.413 288.485 180.364 285.577C186.244 276.783 195.884 271.051 205.868 268.105C237.849 258.511 282.006 274.52 292.931 307.83C293.91 311.232 294.436 314.788 294.311 318.326C294.205 321.863 293.459 325.354 292.178 328.587C291.963 329.135 291.343 329.401 290.796 329.186C290.285 328.984 290.018 328.432 290.159 327.915V327.914Z" fill="#371A45"/>
<path d="M278.633 319.307C281.545 301.409 263.936 283.652 239.302 279.646C214.668 275.64 192.337 286.901 189.424 304.799C186.512 322.697 204.12 340.453 228.755 344.46C253.389 348.466 275.72 337.204 278.633 319.307Z" fill="#FCAC38"/>
<path d="M269.184 306.21C270.249 292.916 254.016 280.771 232.927 279.082C211.837 277.393 193.877 286.8 192.812 300.094C191.747 313.387 207.98 325.532 229.069 327.221C250.159 328.91 268.118 319.503 269.184 306.21Z" fill="#FFD243"/>
<path d="M202.207 286.317C191.856 293.674 188.212 306.232 194.086 317.62C203.458 335.483 225.732 344.068 245.161 342.746C260.478 341.876 277.535 332.164 276.04 315.016C274.093 298.488 258.846 287.23 243.997 281.961C242.981 281.609 243.44 280.067 244.483 280.318C260.997 284.361 278.218 296.494 280.747 314.508C282.721 329.204 271.978 341.243 258.676 345.684C246.078 350.146 231.986 349.279 219.552 344.861C203.273 339.065 186.761 324.954 187.278 306.308C187.514 301.749 188.96 297.273 191.437 293.523C193.879 289.802 197.253 286.786 201.04 284.538C202.225 283.862 203.285 285.52 202.208 286.314L202.207 286.317Z" fill="#371A45"/>
<path d="M365.166 455.285H330.275C336.315 445.358 344.194 438.728 351.432 438.555C358.88 438.371 363.846 445.049 365.166 455.285Z" fill="#FFD243"/>
<path d="M373.655 445.898C367.946 438.281 359.975 435.414 351.167 438.608C342.652 441.723 335.839 448.403 329.757 455.231C329.139 455.965 327.906 455.204 328.305 454.32C334.003 440.763 349.707 426.933 365.233 433.358C367.756 434.482 369.979 436.179 371.708 438.192C373.422 440.22 374.731 442.493 375.533 444.897C375.721 445.464 375.415 446.073 374.85 446.261C374.405 446.41 373.928 446.249 373.655 445.898Z" fill="#371A45"/>
<g opacity="0.6">
<path d="M306.938 326.277C307.922 350.234 347.095 369.873 362.303 432.139C368.754 458.552 390.307 428.394 369.105 378.86C349.455 332.951 306.244 309.391 306.938 326.277Z" fill="white"/>
</g>
<g opacity="0.6">
<path d="M248.189 293.914C253.756 300.944 271.107 303.379 286.516 313.651C302.989 324.631 314.76 315.219 289.925 291.916C263.453 267.078 237.695 280.664 248.189 293.914Z" fill="white"/>
</g>
<path d="M2.71587 458C1.21675 458 0.00163266 456.785 8.07848e-05 455.287C-0.0107824 443.251 1.07398 431.157 3.22488 419.342C7.15113 397.771 14.5877 377.032 25.3283 357.701C41.8837 327.932 65.8106 302.748 94.5234 284.873C98.9742 282.085 103.617 279.437 108.318 277.003C133.429 263.981 161.619 256.262 189.84 254.679L190.181 254.661C190.329 254.651 190.476 254.642 190.625 254.636C192.459 254.537 194.176 254.468 195.832 254.428C199.208 254.335 202.711 254.333 206.237 254.417C230.398 255.025 253.996 259.949 276.377 269.053C283.943 272.112 291.426 275.689 298.612 279.682C300.116 280.523 301.707 281.42 303.276 282.358C304.187 282.891 305.113 283.458 306.027 284.026C335.698 302.164 360.239 327.825 376.981 358.224C393.288 387.833 401.94 421.339 401.999 455.116C401.999 455.836 401.715 456.528 401.206 457.038C400.697 457.549 400.006 457.836 399.284 457.836L2.71587 458ZM201.193 259.786C199.429 259.786 197.683 259.81 195.968 259.856C194.357 259.893 192.695 259.96 190.878 260.059L190.516 260.08C190.38 260.087 190.243 260.097 190.107 260.103C162.682 261.64 135.251 269.152 110.815 281.823C106.245 284.191 101.73 286.766 97.3991 289.478C69.4606 306.871 46.1824 331.373 30.0739 360.338C19.6236 379.15 12.3872 399.33 8.56645 420.315C6.63591 430.921 5.58839 441.759 5.44717 452.57L396.544 452.407C395.516 384.919 360.76 323.854 303.177 288.651C302.287 288.098 301.403 287.555 300.509 287.033C298.979 286.117 297.425 285.244 295.965 284.425C288.978 280.543 281.699 277.062 274.333 274.085C252.556 265.229 229.602 260.438 206.102 259.845C204.457 259.807 202.817 259.786 201.192 259.786H201.193Z" fill="#371A45"/>
<path d="M292.343 218.867C291.93 227.695 290.907 235.976 289.208 242.656C287.862 247.931 283.623 251.929 278.272 252.928C272.295 254.048 263.125 254.754 250.942 252.815L242.17 144.719C242.17 144.719 251.755 143.862 261.991 145.221C269.086 146.16 276.49 148.159 281.256 152.232C289.186 159.017 293.635 191.575 292.343 218.865V218.867Z" fill="white"/>
<path d="M265.618 256.499C261.265 256.499 256.229 256.164 250.552 255.261C249.422 255.081 248.564 254.153 248.471 253.015L239.7 144.919C239.59 143.563 240.594 142.371 241.95 142.25C242.352 142.215 251.927 141.385 262.319 142.765C271.485 143.979 278.399 146.531 282.867 150.348C291.891 158.071 296.097 191.986 294.82 218.981C294.382 228.338 293.272 236.735 291.612 243.265C290.035 249.447 284.978 254.194 278.728 255.362C275.511 255.965 271.108 256.499 265.618 256.499ZM253.252 250.654C264.414 252.211 272.719 251.446 277.816 250.491C282.178 249.676 285.705 246.36 286.807 242.042C288.387 235.832 289.445 227.778 289.867 218.749C291.199 190.637 286.326 159.83 279.645 154.112C275.919 150.927 269.868 148.761 261.667 147.675C254.86 146.771 248.279 146.88 244.846 147.035L253.254 250.652L253.252 250.654Z" fill="#371A45"/>
<g opacity="0.2">
<path d="M292.343 218.867C291.93 227.695 290.907 235.976 289.208 242.656C287.862 247.931 283.623 251.929 278.272 252.928C272.295 254.048 263.125 254.754 250.942 252.815L242.17 144.719C242.17 144.719 251.755 143.862 261.991 145.221C252.4 157.672 224.318 201.794 292.343 218.867Z" fill="#371A45"/>
</g>
<path d="M274.864 232.967C271.414 232.967 268.323 230.536 267.631 227.041C267.061 224.164 266.696 221.178 266.546 218.164C266.479 216.797 267.531 215.635 268.898 215.567C270.256 215.5 271.428 216.552 271.496 217.919C271.633 220.693 271.968 223.438 272.491 226.079C272.749 227.374 274.021 228.227 275.329 227.967L282.985 226.478C283.907 226.299 284.631 225.615 284.877 224.692C287.895 213.356 286.393 199.498 285.607 194.067C285.561 193.741 285.283 193.502 284.957 193.502H284.931C275.471 193.87 273.934 194.219 273.79 194.259C272.471 194.613 271.107 193.834 270.751 192.514C270.394 191.195 271.169 189.836 272.486 189.478C272.964 189.348 274.415 188.952 284.74 188.55C287.594 188.423 290.102 190.503 290.514 193.356C291.345 199.09 292.923 213.747 289.669 225.966C288.942 228.694 286.691 230.806 283.935 231.341L276.278 232.83C275.804 232.922 275.331 232.967 274.865 232.967H274.864Z" fill="#371A45"/>
<path d="M284.383 212.562C283.067 217.897 277.912 228.334 257.706 222.428C257.706 222.428 268.981 249.855 251.693 278.407C238.719 299.83 231.534 324.777 228.753 335.905C227.28 341.781 223.492 346.89 218.124 349.715C214.072 351.848 209.074 352.803 203.963 349.662C192.169 342.419 192.057 339.504 192.057 339.39C192.057 339.39 185.623 339.758 180.355 337.76L180.347 337.752C177.048 336.505 174.206 334.325 173.702 330.546C173.672 330.366 173.657 330.185 173.641 329.997C173.326 325.647 174.588 321.98 176.813 319.184C179.872 315.292 184.773 313.091 189.802 313.091C189.802 313.091 195.755 288.046 200.265 274.146L184.826 273.44L184.818 273.432L183.916 273.395C183.916 273.395 166.628 311.341 160.051 332.005C160.051 332.005 159.24 338.519 137.937 336.761C120.469 335.326 108.141 333.379 103.932 328.376C103.917 328.354 103.909 328.339 103.895 328.323C102.993 327.24 102.475 326.016 102.362 324.619C101.738 316.728 107.623 306.33 123.657 310.087C126.107 291.054 129.707 273.84 137.563 263.381L134.602 196.304C134.602 196.304 140.743 167.075 163.18 159.748C185.609 152.423 242.923 154.112 242.923 154.112C242.923 154.112 260.774 157.111 271.486 175.054C276.334 183.169 279.521 191.043 281.565 197.219V197.241C283.114 201.929 284.008 205.634 284.451 207.753C284.79 209.346 284.774 210.984 284.383 212.562Z" fill="white"/>
<path d="M210.84 354.155C208.001 354.155 205.25 353.36 202.664 351.772C196.331 347.883 192.206 344.527 190.488 341.893C188.07 341.873 183.509 341.606 179.473 340.075C179.423 340.056 179.375 340.036 179.327 340.014C173.376 337.715 171.645 333.809 171.25 330.911C171.212 330.677 171.189 330.441 171.17 330.196C170.826 325.45 172.108 321.116 174.873 317.641C177.94 313.739 182.681 311.227 187.825 310.711C189.161 305.196 193.334 288.247 196.935 276.471L185.48 275.948C182.209 283.215 168.213 314.609 162.464 332.588C162.007 334.924 158.78 340.967 137.732 339.228C119.223 337.707 106.794 335.627 102.034 329.968C101.997 329.923 101.961 329.876 101.926 329.83C100.724 328.359 100.04 326.673 99.8896 324.816C99.4628 319.415 101.545 314.186 105.461 310.824C108.312 308.376 113.346 305.894 121.541 307.152C123.716 291.066 127.13 273.708 135.046 262.618L132.122 196.409C132.113 196.201 132.13 195.994 132.173 195.792C132.436 194.542 138.879 165.072 162.407 157.39C184.987 150.015 240.636 151.565 242.993 151.633C243.106 151.636 243.219 151.647 243.331 151.666C244.107 151.796 262.441 155.069 273.611 173.781C277.784 180.766 281.251 188.389 283.916 196.439C283.936 196.498 283.953 196.558 283.969 196.619C285.601 201.585 286.49 205.401 286.877 207.242C287.297 209.227 287.268 211.217 286.788 213.156C285.943 216.583 283.876 221.276 278.83 224.18C274.375 226.744 268.541 227.318 261.449 225.902C263.97 235.022 267.618 256.89 253.814 279.687C240.817 301.148 233.64 326.567 231.158 336.502C229.478 343.202 225.148 348.815 219.28 351.905C216.436 353.404 213.597 354.153 210.841 354.153L210.84 354.155ZM194.498 338.965C194.712 339.404 196.289 342.042 205.261 347.552C208.881 349.777 212.71 349.767 216.968 347.524C221.591 345.09 225.011 340.636 226.347 335.303C229.498 322.695 236.706 298.37 249.571 277.126C265.968 250.042 255.52 223.632 255.411 223.369C255.053 222.487 255.228 221.478 255.866 220.772C256.504 220.066 257.486 219.782 258.4 220.052C266.178 222.325 272.218 222.27 276.354 219.889C279.886 217.857 281.36 214.461 281.973 211.971C281.973 211.971 281.973 211.971 281.973 211.969C282.271 210.765 282.288 209.52 282.023 208.269C281.653 206.502 280.797 202.832 279.208 198.02C279.189 197.961 279.172 197.903 279.156 197.844C276.613 190.195 273.315 182.955 269.353 176.324C259.898 160.483 244.337 156.926 242.65 156.583C238.964 156.486 185.063 155.204 163.943 162.103C144.301 168.516 137.791 193.561 137.087 196.529L140.034 263.271C140.058 263.845 139.885 264.408 139.54 264.867C131.492 275.582 128.235 293.899 126.11 310.404C126.02 311.099 125.64 311.724 125.064 312.123C124.487 312.523 123.768 312.659 123.086 312.498C116.934 311.058 111.955 311.78 108.689 314.584C105.487 317.333 104.595 321.469 104.829 324.423C104.899 325.295 105.206 326.03 105.796 326.738C105.826 326.773 105.853 326.809 105.881 326.845C109.812 331.381 123.703 333.106 138.139 334.291C154.756 335.664 157.438 331.789 157.633 331.451C157.649 331.384 157.666 331.319 157.688 331.254C164.234 310.688 181.484 272.749 181.658 272.368C182.077 271.451 183.011 270.882 184.018 270.919L184.922 270.956C184.988 270.959 185.054 270.964 185.119 270.973L200.377 271.671C201.15 271.705 201.862 272.099 202.301 272.735C202.742 273.37 202.86 274.175 202.621 274.91C198.193 288.556 192.271 313.415 192.211 313.665C191.945 314.782 190.948 315.57 189.799 315.57C185.42 315.57 181.293 317.493 178.759 320.715C176.773 323.212 175.859 326.356 176.11 329.819C176.118 329.913 176.124 330.025 176.143 330.135C176.147 330.163 176.152 330.191 176.155 330.219C176.27 331.078 176.618 333.694 181.219 335.433C181.264 335.45 181.31 335.469 181.354 335.489C186.028 337.217 191.855 336.921 191.914 336.915C192.608 336.885 193.261 337.121 193.756 337.589C194.146 337.959 194.404 338.441 194.497 338.962L194.498 338.965ZM157.593 331.693C157.593 331.693 157.593 331.696 157.593 331.699C157.593 331.697 157.593 331.694 157.593 331.693ZM157.593 331.687C157.593 331.687 157.593 331.69 157.593 331.693C157.593 331.691 157.593 331.688 157.593 331.687ZM157.593 331.68C157.593 331.68 157.593 331.683 157.593 331.685C157.593 331.685 157.593 331.682 157.593 331.68ZM157.593 331.676C157.593 331.676 157.593 331.676 157.593 331.677C157.593 331.677 157.593 331.677 157.593 331.676Z" fill="#371A45"/>
<path d="M236.908 246.097L197.522 266.484C195.756 267.4 193.763 267.791 191.78 267.611L127.715 261.864L122.671 261.412C118.965 261.082 115.748 258.722 114.321 255.287L93.8375 206.056C93.1764 204.478 93.4014 202.674 94.4163 201.307L97.6861 196.881C98.6188 195.618 100.099 194.891 101.662 194.912L170.205 195.927C173.362 195.972 176.158 197.978 177.218 200.953L189.553 235.638L233.825 238.682L235.966 238.832L236.905 246.099L236.908 246.097Z" fill="#B1B1BA"/>
<g opacity="0.61">
<path d="M101.339 202.312C100.324 203.681 100.107 205.483 100.76 207.061L121.244 256.293C122.304 258.848 124.363 260.809 126.874 261.786L122.671 261.411C118.965 261.08 115.748 258.721 114.321 255.286L93.8375 206.054C93.1764 204.476 93.4014 202.672 94.4163 201.305L97.6861 196.879C98.6188 195.617 100.099 194.889 101.662 194.911L170.205 195.925C171.483 195.941 172.701 196.279 173.768 196.879L108.585 195.918C107.022 195.894 105.54 196.631 104.609 197.886L101.339 202.312Z" fill="white"/>
</g>
<path d="M192.72 270.132C192.333 270.132 191.949 270.115 191.561 270.081L122.452 263.88C117.812 263.463 113.818 260.534 112.028 256.234L91.5452 207.007C90.5613 204.641 90.8965 201.892 92.4189 199.832L95.6887 195.407C97.0916 193.51 99.3605 192.376 101.698 192.435L170.238 193.446C174.412 193.508 178.159 196.192 179.555 200.125L191.343 233.279L236.137 236.36C237.315 236.44 238.272 237.342 238.424 238.514L239.363 245.778C239.497 246.811 238.971 247.816 238.044 248.296L198.656 268.686C196.812 269.641 194.779 270.134 192.717 270.134L192.72 270.132ZM101.591 197.388C100.838 197.388 100.126 197.747 99.6786 198.353L96.4073 202.778C95.9138 203.446 95.8051 204.337 96.1233 205.105L116.607 254.332C117.687 256.927 120.097 258.694 122.896 258.946L192.005 265.146C193.518 265.284 195.032 264.985 196.381 264.287L234.23 244.693L233.773 241.164L189.385 238.111C188.401 238.044 187.551 237.399 187.22 236.468L174.887 201.785C174.18 199.793 172.282 198.434 170.166 198.401L101.626 197.39H101.591V197.388Z" fill="#371A45"/>
<path d="M199.495 267.94C198.457 267.94 197.49 267.284 197.144 266.245L187.203 236.42C186.77 235.122 187.471 233.719 188.77 233.286C190.069 232.854 191.472 233.556 191.905 234.853L201.846 264.678C202.279 265.976 201.578 267.379 200.279 267.811C200.02 267.898 199.754 267.94 199.495 267.94Z" fill="#371A45"/>
<path d="M196.843 259.383C196.15 259.383 195.484 258.998 195.156 258.336C194.697 257.405 195.08 256.279 196.01 255.82L234.026 237.07C234.959 236.611 236.084 236.993 236.543 237.923C237.003 238.854 236.62 239.98 235.69 240.44L197.674 259.189C197.407 259.321 197.123 259.383 196.843 259.383Z" fill="#371A45"/>
<path d="M183.916 268.767C183.679 268.767 183.44 268.755 183.201 268.73C182.169 268.623 181.419 267.7 181.525 266.667C181.632 265.635 182.563 264.887 183.589 264.991C184.649 265.107 185.645 264.686 186.312 263.854C186.981 263.019 187.169 261.961 186.831 260.947L170.038 210.775C169.287 208.532 167.193 207.025 164.828 207.025L99.3868 205.876C98.6171 205.857 97.911 206.214 97.4594 206.844C97.0078 207.472 96.8992 208.251 97.1599 208.98L97.6286 210.286C97.9793 211.262 97.4703 212.339 96.4926 212.688C95.518 213.037 94.4395 212.528 94.0903 211.552L93.6216 210.246C92.9481 208.366 93.2414 206.274 94.4069 204.653C95.5708 203.03 97.4718 202.056 99.4536 202.12L164.861 203.269C168.81 203.269 172.336 205.807 173.601 209.583L190.394 259.755C191.135 261.971 190.706 264.38 189.244 266.203C187.934 267.838 185.98 268.766 183.915 268.766L183.916 268.767Z" fill="#371A45"/>
<path d="M176.706 199.057L170.011 204.766L173.712 196.785C175.212 194.054 178.933 196.879 176.706 199.056V199.057Z" fill="#371A45"/>
<path d="M152.812 231.633C152.812 239.064 147.324 245.091 140.552 245.091C138.01 245.091 135.646 244.239 133.689 242.784C132.689 242.039 133.01 240.508 134.217 240.196C138.716 239.033 142.011 235.272 142.011 230.807C142.011 226.878 139.453 223.49 135.767 221.941C134.607 221.454 134.5 219.836 135.634 219.292C137.138 218.569 138.801 218.168 140.553 218.168C147.326 218.168 152.813 224.195 152.813 231.634L152.812 231.633Z" fill="#371A45"/>
<g opacity="0.61">
<path d="M154.316 233.887C154.316 241.318 148.828 247.345 142.056 247.345C139.515 247.345 137.147 246.496 135.193 245.038C134.644 244.631 134.495 243.986 134.667 243.437C136.412 244.489 138.418 245.091 140.553 245.091C147.326 245.091 152.813 239.065 152.813 231.633C152.813 229.161 152.205 226.839 151.137 224.847C153.122 227.236 154.317 230.407 154.317 233.887H154.316Z" fill="white"/>
</g>
<g opacity="0.2">
<path d="M236.908 245.91L197.522 266.296C195.755 267.213 193.763 267.604 191.78 267.424L127.715 261.676L127.67 261.601C130.676 260.685 176.776 255.185 170.011 207.095L176.776 203.811L190.591 238.57C190.591 238.57 195.454 256.529 214.358 247.94C222.822 244.101 229.271 240.877 233.826 238.496L235.968 238.646L236.907 245.913L236.908 245.91Z" fill="#371A45"/>
</g>
<path d="M190.032 310.627C198.676 312.529 206.778 316.446 213.794 321.766C211.855 320.829 209.91 319.938 207.902 319.22C202.055 317.079 195.783 315.706 189.577 315.56C185.965 315.427 186.447 310.1 190.032 310.627Z" fill="#371A45"/>
<path d="M190.883 337.212C194.54 336.244 198.114 336.421 201.8 336.418C199.474 337.566 197.171 338.765 195.025 340.171C194.348 340.622 193.657 341.111 193.238 341.573C192.268 342.641 190.616 342.718 189.549 341.749C187.92 340.279 188.775 337.61 190.884 337.214L190.883 337.212Z" fill="#371A45"/>
<path d="M124.349 307.709C129.279 310.106 134.323 312.326 138.817 315.473C137.54 315.013 136.232 314.715 134.914 314.429C130.972 313.61 126.944 312.999 122.968 312.467C121.594 312.289 120.626 311.03 120.804 309.657C120.991 308.001 122.854 306.984 124.35 307.707L124.349 307.709Z" fill="#371A45"/>
<path d="M171.009 303.55C169.847 303.55 168.81 302.729 168.58 301.547C167.011 293.503 162.286 286.933 155.273 283.044C147.998 279.008 139.132 278.328 131.559 281.221C130.282 281.71 128.848 281.069 128.359 279.793C127.87 278.514 128.511 277.082 129.788 276.594C138.711 273.182 149.138 273.975 157.678 278.713C165.992 283.325 171.591 291.097 173.446 300.601C173.708 301.944 172.831 303.246 171.487 303.506C171.327 303.537 171.167 303.553 171.009 303.553V303.55Z" fill="#371A45"/>
<path d="M183.918 275.872C183.379 275.872 182.845 275.697 182.405 275.359C181.044 274.609 172.217 270.95 164.263 267.762C162.992 267.253 162.376 265.81 162.885 264.54C163.394 263.269 164.837 262.653 166.108 263.162C184.944 270.711 185.364 271.238 185.853 271.847C186.708 272.915 186.534 274.475 185.467 275.329C185.009 275.694 184.462 275.872 183.919 275.872H183.918ZM181.981 274.943C181.981 274.943 181.983 274.943 181.984 274.946C181.984 274.946 181.983 274.945 181.981 274.943Z" fill="#371A45"/>
<path d="M237.912 305.427C237.083 305.427 236.275 305.011 235.805 304.257C231.042 296.595 217.876 279.692 198.569 288.187C197.313 288.736 195.853 288.168 195.302 286.918C194.751 285.664 195.319 284.203 196.572 283.652C212.433 276.676 228.672 283.399 240.015 301.645C240.737 302.807 240.381 304.333 239.217 305.056C238.811 305.309 238.358 305.43 237.912 305.43V305.427Z" fill="#371A45"/>
<path d="M229.703 225.626C228.779 225.626 227.816 225.516 226.818 225.267C221.745 224 216.9 221.769 213.527 219.147C210.525 216.816 208.847 213.217 208.889 209.413C207.135 210.913 205.425 212.32 204.595 212.843C202.956 213.879 200.724 213.767 198.907 212.557C197.695 211.751 194.983 209.262 195.942 203.583C197.228 195.969 211.952 187.846 214.892 186.296C218.497 184.393 232.353 185.44 238.361 186.003L251.607 185.221C251.769 185.21 251.932 185.216 252.092 185.24C258.811 186.163 264.204 190.544 266.887 197.26C270.367 205.969 268.653 216.554 262.523 224.222C261.67 225.289 260.11 225.464 259.039 224.61C259.016 224.591 258.994 224.572 258.973 224.554C258.437 224.873 257.784 224.99 257.131 224.835L240.134 220.789C238.359 222.562 234.583 225.626 229.704 225.626H229.703ZM212.387 200.567C212.801 200.567 213.217 200.671 213.596 200.883C214.521 201.402 215.014 202.449 214.823 203.491L213.973 208.139C213.472 210.883 214.466 213.603 216.568 215.236C219.375 217.418 223.655 219.372 228.019 220.461C233.112 221.735 237.301 216.56 237.344 216.507C237.942 215.758 238.927 215.41 239.863 215.634L258.277 220.018C258.614 220.098 258.918 220.244 259.181 220.438C263.709 214.281 264.966 205.818 262.283 199.099C260.281 194.092 256.51 190.933 251.646 190.184L238.463 190.961C238.336 190.969 238.209 190.967 238.083 190.955C229.431 190.139 218.976 189.835 217.198 190.683C209.724 194.628 201.441 200.783 200.828 204.41C200.535 206.147 200.749 207.54 201.418 208.235C201.682 208.51 201.933 208.58 202.045 208.59C203.369 207.697 208.028 203.628 210.729 201.203C211.195 200.784 211.788 200.569 212.385 200.569L212.387 200.567Z" fill="#371A45"/>
<path d="M237.956 219.366L233.638 213.449L234.889 213.212L232.197 217.509L233.478 212.602C233.654 212.005 234.324 211.959 234.729 212.365L240.622 216.716C242.859 218.561 239.791 221.616 237.956 219.365V219.366Z" fill="#371A45"/>
<path d="M234.853 189.293L232.197 177.967L238.963 187.433L234.853 189.293Z" fill="#371A45"/>
<path d="M157.419 194.911L159.674 184.354L161.931 194.911H157.419Z" fill="#371A45"/>
<path d="M177.15 201.296C175.823 201.296 174.724 200.246 174.675 198.909C174.625 197.542 175.694 196.392 177.062 196.343L201.741 195.446C203.122 195.395 204.258 196.464 204.308 197.832C204.358 199.199 203.288 200.348 201.921 200.398L177.242 201.295C177.211 201.295 177.18 201.295 177.15 201.295V201.296Z" fill="#371A45"/>
<path d="M186.961 230.603C185.757 230.603 184.757 229.652 184.709 228.437C184.659 227.193 185.628 226.144 186.874 226.094L211.47 225.115C212.871 225.06 213.968 223.918 213.968 222.515V218.04C213.968 216.794 214.977 215.786 216.223 215.786C217.469 215.786 218.478 216.794 218.478 218.04V222.515C218.478 226.347 215.478 229.467 211.648 229.621L187.052 230.599C187.021 230.599 186.992 230.599 186.961 230.599V230.603Z" fill="#371A45"/>
<path d="M185.544 223.929C184.343 223.929 183.344 222.981 183.292 221.769C183.24 220.525 184.205 219.475 185.451 219.422L201.934 218.727C202.472 218.704 202.969 218.471 203.33 218.072C203.692 217.674 203.875 217.157 203.844 216.617L203.412 209.019C203.343 207.776 204.292 206.71 205.535 206.64C206.778 206.58 207.843 207.52 207.914 208.763L208.346 216.361C208.445 218.114 207.851 219.796 206.673 221.097C205.494 222.399 203.878 223.158 202.121 223.231L185.639 223.926C185.606 223.926 185.574 223.927 185.543 223.927L185.544 223.929Z" fill="#371A45"/>
<path d="M207.238 218.097L214.172 224.742L204.969 221.994C203.741 221.628 203.043 220.336 203.411 219.109C203.856 217.469 206.051 216.906 207.239 218.099L207.238 218.097Z" fill="#371A45"/>
<path d="M275.492 153.941C272.697 156.895 268.787 158.671 264.719 158.806C267.51 155.843 271.428 154.086 275.492 153.941Z" fill="#371A45"/>
<g opacity="0.3">
<path d="M176.813 319.186C175.925 322.867 174.889 326.767 173.702 330.546C173.672 330.366 173.657 330.185 173.641 329.997C173.326 325.647 174.588 321.98 176.813 319.184V319.186Z" fill="#000070"/>
</g>
<g opacity="0.2">
<path d="M184.818 273.432L183.916 273.395C183.916 273.395 166.628 311.341 160.051 332.005C160.051 332.005 159.24 338.519 137.937 336.761C120.469 335.326 108.141 333.379 103.932 328.376C103.903 328.331 103.887 328.308 103.887 328.308C103.887 328.308 109.877 318.57 128.669 324.664C147.461 330.75 150.842 310.087 150.842 310.087C150.842 310.087 170.385 276.853 159.674 264.732L184.818 273.434V273.432Z" fill="#371A45"/>
</g>
<g opacity="0.2">
<path d="M284.06 212.75C282.744 218.085 277.589 228.522 257.383 222.616C257.383 222.616 268.658 250.042 251.37 278.595C238.396 300.017 231.211 324.965 228.43 336.092C226.957 341.969 223.169 347.077 217.801 349.902C213.749 352.035 208.751 352.991 203.64 349.85C191.846 342.606 191.734 339.691 191.734 339.578C191.734 339.578 185.3 339.946 180.032 337.948L180.024 337.94C180.024 337.94 206.339 341.216 208.023 330.501C209.707 319.778 208.023 318.922 208.023 318.922C208.023 318.922 231.234 278.677 234.534 269.616C237.841 260.562 233.075 257.691 233.075 257.691L201.505 267.076L237.585 245.278L236.585 230.679C236.585 230.679 221.537 232.354 216.855 223.33L213.849 226.673L205.535 218.355L205.784 206.836L213.849 202.447C213.849 202.447 220.396 216.206 231.874 209.075L236.587 206.332C236.587 206.332 283.211 218.707 281.242 197.427C282.791 202.115 283.685 205.82 284.129 207.939C284.467 209.532 284.451 211.17 284.06 212.748V212.75Z" fill="#371A45"/>
</g>
<g opacity="0.2">
<path d="M199.495 177.028C199.495 177.028 244.238 187.736 259.458 160.31L246.213 154.965" fill="#371A45"/>
</g>
<path d="M127.861 137.84C134.709 148.69 144.343 157.879 156.215 164.262C158.636 165.562 161.142 166.749 163.737 167.806C164.999 168.324 166.29 168.808 167.6 169.27C171.554 170.645 175.545 171.683 179.549 172.396C182.999 173.02 186.458 173.398 189.895 173.552C194.048 173.74 198.179 173.589 202.25 173.125C203.733 172.952 205.209 172.739 206.676 172.489C233.508 167.857 257.183 149.463 267.033 122.327C281.552 82.3546 260.568 38.5679 220.174 24.519C212.393 21.8181 204.452 20.4048 196.607 20.1954C195.69 20.1628 194.77 20.1551 193.85 20.1675C191.388 20.183 188.941 20.3148 186.514 20.5615C180.901 21.1308 175.393 22.3068 170.09 24.0334C164.788 25.7539 159.676 28.0359 154.865 30.8236C153.335 31.7095 151.834 32.6449 150.363 33.6362C148.159 35.1224 146.028 36.7141 143.977 38.4283C133.741 46.9343 125.572 58.1444 120.737 71.4611C112.384 94.4535 115.782 118.706 127.857 137.838L127.861 137.84Z" fill="white"/>
<path d="M193.364 173.85C192.2 173.85 191.039 173.823 189.886 173.771C186.39 173.614 182.898 173.223 179.51 172.61C175.469 171.889 171.436 170.834 167.527 169.475C166.093 168.968 164.826 168.487 163.653 168.006C161.108 166.97 158.571 165.775 156.111 164.453C144.512 158.215 134.68 149.052 127.676 137.955C115.041 117.936 112.44 93.6732 120.536 71.3866C125.215 58.4965 133.274 47.0414 143.84 38.2608C145.836 36.5915 147.992 34.975 150.245 33.4563C151.688 32.4836 153.208 31.5342 154.759 30.6359C159.584 27.8389 164.721 25.5475 170.027 23.8271C175.382 22.0818 180.923 20.9121 186.497 20.3443C188.919 20.0992 191.395 19.9658 193.853 19.9503C194.834 19.9379 195.741 19.9472 196.62 19.9797C204.624 20.1923 212.576 21.6521 220.25 24.3142C239.92 31.1556 255.631 45.1798 264.491 63.8052C273.279 82.2833 274.257 103.093 267.243 122.403C257.723 148.628 234.531 167.903 206.718 172.706C205.262 172.955 203.769 173.169 202.279 173.344C199.315 173.681 196.331 173.85 193.367 173.85H193.364ZM128.045 137.722C135.01 148.755 144.787 157.866 156.319 164.069C158.765 165.383 161.288 166.571 163.821 167.601C164.986 168.08 166.246 168.558 167.673 169.062C171.558 170.414 175.569 171.462 179.588 172.179C182.957 172.789 186.429 173.176 189.906 173.333C193.978 173.515 198.122 173.373 202.225 172.908C203.707 172.734 205.192 172.52 206.64 172.275C234.299 167.499 257.363 148.33 266.828 122.252C273.802 103.053 272.831 82.3624 264.092 63.9914C255.284 45.473 239.661 31.528 220.103 24.7253C212.472 22.0756 204.565 20.6267 196.603 20.4141C195.731 20.3831 194.83 20.3738 193.854 20.3862C191.409 20.4017 188.947 20.5351 186.539 20.7771C180.997 21.3403 175.486 22.5053 170.16 24.2397C164.885 25.9524 159.777 28.2313 154.978 31.0129C153.434 31.9065 151.924 32.8497 150.489 33.8177C148.249 35.3287 146.106 36.9375 144.12 38.5959C133.612 47.3268 125.598 58.7183 120.946 71.5355C112.894 93.6949 115.483 117.818 128.045 137.722Z" fill="#371A45"/>
<g opacity="0.2">
<path d="M267.035 122.327C257.187 149.466 233.508 167.862 206.676 172.489C205.209 172.741 203.735 172.953 202.253 173.125C198.181 173.591 194.05 173.738 189.899 173.553C186.46 173.397 182.999 173.02 179.552 172.398C175.547 171.684 171.557 170.648 167.6 169.273C166.293 168.806 165.002 168.325 163.739 167.809C161.142 166.751 158.639 165.561 156.217 164.261C144.345 157.876 134.709 148.692 127.861 137.837C124.097 131.877 121.175 125.415 119.19 118.651C125.966 128.858 135.257 137.496 146.581 143.588C149.002 144.892 151.507 146.076 154.103 147.136C155.362 147.654 156.653 148.135 157.964 148.6C161.921 149.975 165.911 151.012 169.912 151.728C173.363 152.348 176.819 152.727 180.258 152.883C184.41 153.068 188.545 152.917 192.613 152.455C194.1 152.28 195.574 152.069 197.04 151.816C223.872 147.187 247.548 128.794 257.399 101.653C263.15 85.8219 263.326 69.3931 258.939 54.4537C271.804 73.8098 275.606 98.7337 267.033 122.325L267.035 122.327Z" fill="#371A45"/>
</g>
<path d="M193.364 175.314C192.178 175.314 190.997 175.288 189.821 175.235C186.259 175.075 182.703 174.678 179.25 174.053C175.136 173.319 171.028 172.244 167.046 170.86C165.581 170.342 164.291 169.853 163.096 169.363C160.508 168.308 157.922 167.092 155.417 165.746C143.597 159.387 133.575 150.047 126.436 138.738C113.559 118.333 110.905 93.6034 119.158 70.8886C123.925 57.755 132.136 46.0827 142.903 37.1361C144.936 35.4373 147.13 33.7914 149.426 32.2431C150.897 31.2503 152.446 30.2838 154.025 29.3685C158.939 26.5202 164.172 24.187 169.575 22.4324C175.029 20.6561 180.673 19.4632 186.349 18.8861C188.819 18.6363 191.339 18.5013 193.843 18.4843C194.844 18.4718 195.771 18.4796 196.674 18.5137C204.815 18.7309 212.915 20.2171 220.731 22.9289C240.777 29.9006 256.786 44.1931 265.815 63.1754C274.774 82.0102 275.77 103.22 268.621 122.902C258.921 149.619 235.299 169.256 206.966 174.149C205.483 174.402 203.965 174.621 202.449 174.798C199.427 175.142 196.384 175.314 193.366 175.314H193.364ZM129.285 136.942C136.115 147.762 145.703 156.697 157.013 162.781C159.412 164.07 161.889 165.237 164.372 166.247C165.52 166.718 166.757 167.187 168.16 167.683C171.967 169.006 175.901 170.035 179.844 170.739C183.153 171.338 186.559 171.718 189.972 171.872C193.971 172.053 198.034 171.912 202.061 171.454C203.512 171.284 204.972 171.074 206.395 170.832C233.534 166.146 256.165 147.339 265.452 121.754C272.291 102.925 271.338 82.637 262.77 64.6212C254.132 46.4596 238.809 32.783 219.623 26.1107C212.135 23.5122 204.378 22.0896 196.565 21.8801C195.703 21.8476 194.829 21.8383 193.875 21.8522C191.464 21.8693 189.05 21.998 186.688 22.237C181.25 22.7892 175.843 23.9326 170.615 25.6344C165.436 27.3161 160.424 29.5515 155.714 32.2819C154.198 33.1584 152.717 34.0846 151.31 35.034C149.111 36.5171 147.008 38.0948 145.062 39.7206C134.75 48.2887 126.889 59.463 122.325 72.0366C114.431 93.7663 116.968 117.423 129.287 136.94L129.285 136.942Z" fill="#371A45"/>
<path d="M193.362 175.803C192.169 175.803 190.98 175.777 189.798 175.722C186.215 175.561 182.636 175.161 179.163 174.532C175.024 173.794 170.891 172.714 166.886 171.321C165.412 170.8 164.114 170.308 162.912 169.813C160.307 168.752 157.707 167.528 155.186 166.175C143.291 159.776 133.207 150.379 126.023 138.997C113.064 118.464 110.394 93.5786 118.699 70.7195C123.495 57.5036 131.758 45.76 142.591 36.7575C144.635 35.0495 146.843 33.3927 149.153 31.8351C150.635 30.8361 152.191 29.8634 153.78 28.9434C158.725 26.0781 163.987 23.7309 169.423 21.9655C174.909 20.1799 180.587 18.9791 186.298 18.3989C188.783 18.1476 191.319 18.0111 193.839 17.994C194.841 17.9801 195.78 17.9909 196.69 18.0235C204.877 18.2422 213.026 19.7362 220.89 22.465C241.059 29.4802 257.169 43.8611 266.254 62.9628C275.269 81.9156 276.272 103.261 269.077 123.067C259.319 149.948 235.55 169.706 207.047 174.629C205.554 174.883 204.027 175.102 202.503 175.282C199.461 175.628 196.4 175.8 193.362 175.8V175.803ZM129.698 136.681C136.483 147.43 146.008 156.307 157.244 162.35C159.628 163.629 162.089 164.788 164.557 165.794C165.699 166.262 166.928 166.729 168.324 167.222C172.105 168.536 176.012 169.559 179.933 170.258C183.221 170.853 186.606 171.231 189.995 171.383C193.965 171.563 198.006 171.422 202.006 170.967C203.448 170.798 204.899 170.59 206.313 170.35C233.278 165.693 255.767 147.008 264.993 121.587C271.787 102.882 270.842 82.7269 262.329 64.8306C253.748 46.7885 238.524 33.2003 219.462 26.5714C212.022 23.9884 204.313 22.5751 196.552 22.3688C195.692 22.3378 194.824 22.3285 193.881 22.3409C191.483 22.3564 189.084 22.4852 186.736 22.7241C181.334 23.2732 175.96 24.4088 170.766 26.0998C165.62 27.7706 160.638 29.9921 155.958 32.7039C154.452 33.5757 152.98 34.4957 151.581 35.4389C149.396 36.9127 147.307 38.4795 145.374 40.096C135.128 48.6098 127.318 59.7112 122.783 72.2026C114.941 93.7896 117.463 117.291 129.698 136.68V136.681Z" fill="#371A45"/>
<path d="M140.442 152.992C187.768 181.375 248.276 155.016 248.316 100.713C248.344 63.7695 211.712 35.4746 175.758 37.9707C149.59 39.7873 124.766 52.8543 116.234 93.6887C116.234 93.6887 115.281 112.322 121.099 124.308C126.916 136.293 134.63 146.968 134.63 146.968L140.443 152.99L140.442 152.992Z" fill="#371A45"/>
<path d="M248.313 100.715C248.274 155.015 187.765 181.374 140.442 152.995L139.264 151.773C189.809 157.329 237.89 124.55 238.966 69.6398C244.841 78.7369 248.319 89.3139 248.313 100.715Z" fill="#220F2D"/>
<path d="M181.28 174.587C180.688 174.587 180.099 174.582 179.504 174.568L179.167 174.535C175.024 173.797 170.891 172.716 166.886 171.323C165.412 170.801 164.114 170.31 162.912 169.815C160.307 168.754 157.707 167.53 155.186 166.177C143.291 159.778 133.207 150.381 126.023 138.999C113.064 118.465 110.394 93.5801 118.699 70.7211C123.495 57.5052 131.758 45.7615 142.591 36.7591L142.764 36.6164L142.961 36.5124C152.045 31.6831 162.753 28.81 174.79 27.9738C196.468 26.4706 219.22 34.7485 235.688 50.1193C250.523 63.965 258.684 81.9171 258.67 100.667C258.653 121.071 251.316 139.028 237.453 152.595C223.117 166.624 202.728 174.585 181.283 174.585L181.28 174.587ZM179.763 170.229C200.645 170.603 220.544 163.059 234.41 149.492C247.421 136.76 254.305 119.875 254.322 100.665C254.336 83.1334 246.663 66.3106 232.721 53.2964C217.117 38.7324 195.575 30.8888 175.089 32.3083C163.753 33.0948 153.696 35.7662 145.195 40.245C135.04 48.7355 127.29 59.7826 122.782 72.2057C114.94 93.7927 117.462 117.294 129.697 136.683C136.481 147.432 146.007 156.309 157.243 162.351C159.626 163.631 162.087 164.79 164.555 165.795C165.696 166.264 166.926 166.731 168.321 167.224C172.047 168.519 175.899 169.531 179.762 170.23L179.763 170.229Z" fill="#371A45"/>
<path d="M181.526 165.336C167.396 165.336 152.995 161.425 140.043 153.657L139.883 153.53L134 147.424C133.922 147.317 126.178 136.557 120.399 124.647C114.563 112.62 115.418 94.4194 115.457 93.6499L115.472 93.5305C122.809 58.4158 143.074 39.4615 175.702 37.1966C194.669 35.8888 214.591 43.1304 229.012 56.5899C241.972 68.6857 249.103 84.3558 249.09 100.713C249.073 124.464 237.431 144.666 217.15 156.135C206.283 162.28 194.01 165.334 181.526 165.334V165.336ZM140.929 152.379C164.828 166.672 193.732 167.598 216.386 154.785C236.168 143.599 247.521 123.889 247.538 100.713C247.551 84.7918 240.594 69.525 227.952 57.7255C213.841 44.5546 194.345 37.4572 175.809 38.7463C143.977 40.957 124.192 59.4769 117.004 93.788C116.954 94.9438 116.293 112.634 121.794 123.971C127.328 135.375 134.683 145.713 135.226 146.472L140.928 152.379H140.929Z" fill="#371A45"/>
<path d="M282.524 95.1113C284.358 110.122 276.909 123.836 265.882 125.743C254.854 127.649 244.43 117.024 242.596 102.013C242.582 101.92 242.573 101.819 242.565 101.725C240.858 86.8271 248.288 73.2746 259.238 71.382C267.756 69.9097 275.915 75.915 280.033 85.6419C281.244 88.5057 282.107 91.6968 282.524 95.1113Z" fill="white"/>
<g opacity="0.2">
<path d="M282.524 95.1113C284.358 110.122 276.909 123.836 265.882 125.743C254.854 127.649 244.43 117.024 242.596 102.013C242.582 101.92 242.572 101.819 242.565 101.725C243.964 103.056 246.038 104.246 248.532 103.293C252.899 101.622 259.755 90.5814 259.755 90.5814C259.755 90.5814 268.535 88.3831 280.033 85.6435C281.244 88.5072 282.107 91.6984 282.524 95.1129V95.1113Z" fill="#371A45"/>
</g>
<path d="M263.284 128.136C259.386 128.136 255.56 126.807 252.076 124.219C245.818 119.57 241.576 111.571 240.44 102.274C238.469 86.1554 246.739 71.337 258.87 69.2411C263.777 68.3925 268.68 69.6584 273.045 72.9023C279.304 77.5517 283.545 85.5504 284.681 94.8476C286.652 110.966 278.382 125.784 266.251 127.88C265.261 128.051 264.269 128.138 263.284 128.138V128.136ZM261.81 73.332C261.077 73.332 260.343 73.3956 259.611 73.5213C249.725 75.2293 243.06 87.8914 244.753 101.746C245.731 109.75 249.437 116.847 254.668 120.732C258.056 123.248 261.808 124.239 265.512 123.599C275.398 121.891 282.063 109.229 280.37 95.3735C279.392 87.3701 275.687 80.2727 270.455 76.3881C267.738 74.3698 264.785 73.332 261.81 73.332Z" fill="#371A45"/>
<path d="M270.744 121.766C279.148 121.229 285.322 110.802 284.534 98.4774C283.745 86.1529 276.293 76.5976 267.888 77.135C259.484 77.6724 253.31 88.0991 254.098 100.424C254.887 112.748 262.339 122.303 270.744 121.766Z" fill="white"/>
<g opacity="0.2">
<path d="M271.936 121.613C280.255 120.108 285.822 108.965 284.375 96.7169C284.222 95.3874 283.983 94.0998 283.683 92.8634C282.478 101.566 277.65 108.456 271.181 109.619C263.877 110.932 256.875 104.503 254.23 94.7405C253.963 97.1156 253.96 99.618 254.26 102.164C255.706 114.412 263.622 123.116 271.937 121.613H271.936Z" fill="#371A45"/>
</g>
<path d="M270.045 123.955C267.154 123.955 264.303 122.963 261.687 121.028C256.618 117.278 253.037 110.322 252.102 102.42C250.498 88.8501 256.74 76.8644 266.311 75.1347C269.968 74.4722 273.647 75.4154 276.948 77.8557C282.016 81.6038 285.6 88.56 286.532 96.4625C288.136 110.032 281.894 122.018 272.323 123.748C271.563 123.886 270.803 123.954 270.044 123.954L270.045 123.955ZM268.562 79.2767C268.068 79.2767 267.575 79.3202 267.086 79.4086C260.012 80.6869 255.127 90.9925 256.418 101.911C257.214 108.645 260.151 114.486 264.272 117.536C266.586 119.249 269.106 119.917 271.551 119.475C278.623 118.195 283.508 107.89 282.22 96.9729C281.424 90.2385 278.488 84.3977 274.364 81.3478C272.514 79.9795 270.533 79.2767 268.562 79.2767Z" fill="#371A45"/>
<g opacity="0.5">
<path d="M195.506 53.4112C195.506 53.4112 163.25 52.3718 146.216 72.4726C146.198 72.4943 146.181 72.5144 146.162 72.5362C142.58 76.7698 139.442 87.3065 138.508 92.73C137.273 99.9034 137.484 103.467 137.847 107.961C138.957 121.63 142.068 127.811 142.068 127.811C133.6 121.265 128.494 113.45 127.456 102.074C127.356 100.952 127.296 99.7917 127.273 98.5987C127.266 98.3241 127.266 98.0511 127.269 97.7765C127.263 97.775 127.265 97.7688 127.273 97.7595C127.397 95.3378 127.681 93.712 128.305 90.1532C130.179 79.4164 135.113 65.1999 147.951 57.6945C171.957 43.6626 196.53 51.8847 195.506 53.4097V53.4112Z" fill="white"/>
</g>
<g opacity="0.5">
<path d="M224.394 104.101C229.779 102.107 232.288 95.4787 229.997 89.2952C227.707 83.1118 221.484 79.7151 216.099 81.7086C210.714 83.702 208.206 90.3307 210.496 96.5141C212.787 102.698 219.009 106.094 224.394 104.101Z" fill="white"/>
</g>
<g opacity="0.5">
<path d="M229.745 119.316C231.882 118.29 232.658 115.468 231.479 113.013C230.3 110.558 227.611 109.399 225.474 110.425C223.337 111.45 222.561 114.272 223.74 116.728C224.919 119.183 227.608 120.342 229.745 119.316Z" fill="white"/>
</g>
<path d="M349.278 140.972L354.307 149.605L364.274 150.358C367.112 150.572 368.473 153.948 366.577 156.07L359.918 163.519L362.281 173.226C362.955 175.991 360.164 178.328 357.559 177.18L348.413 173.152L339.909 178.398C337.487 179.892 334.402 177.962 334.687 175.13L335.694 165.19L328.075 158.726C325.903 156.884 326.788 153.353 329.571 152.751L339.338 150.637L343.134 141.394C344.216 138.761 347.847 138.51 349.279 140.971L349.278 140.972Z" fill="#FFD243"/>
<g opacity="0.2">
<path d="M366.575 156.071L359.916 163.519L362.278 173.225C362.951 175.992 360.161 178.325 357.56 177.184L348.413 173.155L339.905 178.395C337.668 179.782 334.858 178.228 334.676 175.747C335.181 175.697 335.685 175.536 336.169 175.243L344.672 170.002L353.819 174.031C356.426 175.173 359.216 172.84 358.543 170.072L356.181 160.367L362.84 152.919C363.527 152.148 363.786 151.209 363.703 150.313L364.277 150.355C367.115 150.572 368.475 153.949 366.575 156.073V156.071Z" fill="#371A45"/>
</g>
<g opacity="0.61">
<path d="M349.936 142.108C348.808 142.269 347.756 142.97 347.251 144.196L343.452 153.437L333.688 155.553C330.905 156.155 330.022 159.688 332.187 161.531L339.813 167.99L338.804 177.933C338.769 178.242 338.783 178.543 338.832 178.83C336.674 179.32 334.445 177.554 334.683 175.13L335.691 165.187L328.072 158.727C325.899 156.884 326.782 153.353 329.564 152.75L339.335 150.634L343.128 141.393C344.214 138.765 347.846 138.513 349.275 140.972L349.934 142.108H349.936Z" fill="white"/>
</g>
<path d="M338.104 181.018C337.088 181.018 336.071 180.735 335.167 180.17C333.367 179.044 332.381 177.032 332.595 174.92L333.491 166.079L326.714 160.33C325.095 158.957 324.409 156.824 324.924 154.765C325.44 152.706 327.049 151.147 329.124 150.697L337.813 148.817L341.188 140.597C341.995 138.633 343.811 137.322 345.929 137.176C348.049 137.039 350.028 138.079 351.095 139.913L355.569 147.592L364.432 148.26C366.55 148.42 368.358 149.743 369.153 151.712C369.946 153.681 369.561 155.887 368.146 157.469L362.224 164.095L364.327 172.728C364.829 174.79 364.129 176.918 362.502 178.28C360.874 179.644 358.654 179.959 356.713 179.103L348.58 175.519L341.016 180.185C340.117 180.739 339.112 181.017 338.106 181.017L338.104 181.018ZM346.312 141.368C346.278 141.368 346.246 141.368 346.218 141.371C345.969 141.388 345.361 141.503 345.077 142.195L341.281 151.437C341.019 152.078 340.457 152.547 339.78 152.694L330.013 154.809C329.282 154.967 329.063 155.545 329.003 155.787C328.942 156.029 328.863 156.642 329.433 157.126L337.054 163.591C337.581 164.039 337.855 164.717 337.785 165.406L336.778 175.345C336.703 176.088 337.186 176.476 337.397 176.608C337.608 176.741 338.168 177.005 338.803 176.613L347.307 171.366C347.897 171.001 348.626 170.95 349.259 171.231L358.405 175.26C359.086 175.559 359.606 175.223 359.797 175.061C359.987 174.902 360.413 174.452 360.236 173.726L357.872 164.019C357.709 163.347 357.886 162.637 358.347 162.122L365.006 154.672C365.504 154.115 365.341 153.518 365.248 153.287C365.155 153.056 364.859 152.513 364.112 152.457L354.146 151.704C353.456 151.652 352.836 151.264 352.487 150.666L347.458 142.033C347.122 141.458 346.596 141.371 346.309 141.371L346.312 141.368Z" fill="#371A45"/>
<path d="M45.5369 172.567L50.5665 181.2L60.5327 181.952C63.3711 182.166 64.7321 185.542 62.8357 187.664L56.1766 195.114L58.5401 204.821C59.2136 207.585 56.4233 209.923 53.8177 208.775L44.6725 204.746L36.1682 209.993C33.7457 211.487 30.6606 209.557 30.9461 206.724L31.9533 196.785L24.3336 190.32C22.1625 188.479 23.0471 184.948 25.8296 184.346L35.5971 182.232L39.393 172.989C40.4747 170.356 44.106 170.105 45.5384 172.565L45.5369 172.567Z" fill="#FFD243"/>
<g opacity="0.2">
<path d="M62.8356 187.666L56.1765 195.114L58.5385 204.819C59.212 207.587 56.4217 209.92 53.8208 208.778L44.674 204.749L36.165 209.99C33.9288 211.377 31.1183 209.822 30.9368 207.342C31.4411 207.292 31.9455 207.131 32.4297 206.838L40.9324 201.597L50.0792 205.626C52.6863 206.768 55.4766 204.434 54.8031 201.667L52.4411 191.962L59.1002 184.514C59.7877 183.743 60.0469 182.804 59.9631 181.907L60.5373 181.949C63.3757 182.166 64.7351 185.544 62.8356 187.668V187.666Z" fill="#371A45"/>
</g>
<g opacity="0.61">
<path d="M46.1948 173.702C45.0666 173.864 44.0144 174.565 43.51 175.79L39.7111 185.032L29.9466 187.148C27.1641 187.75 26.2811 191.282 28.446 193.125L36.0719 199.585L35.0632 209.528C35.0275 209.836 35.0414 210.137 35.0911 210.424C32.9324 210.914 30.704 209.149 30.9414 206.724L31.9501 196.782L24.3304 190.322C22.1578 188.479 23.0408 184.948 25.8233 184.345L35.5939 182.229L39.3867 172.987C40.473 170.359 44.1044 170.108 45.5337 172.567L46.1932 173.702H46.1948Z" fill="white"/>
</g>
<path d="M34.3632 212.613C33.3468 212.613 32.3287 212.329 31.424 211.763C29.6238 210.637 28.6399 208.626 28.8541 206.513L29.7495 197.672L22.9725 191.923C21.3539 190.55 20.6679 188.418 21.1831 186.358C21.6984 184.3 23.3077 182.74 25.3841 182.292L34.0715 180.412L37.4468 172.191C38.2538 170.227 40.0695 168.918 42.1878 168.771C44.3123 168.628 46.2863 169.674 47.3556 171.507L51.8296 179.186L60.6924 179.855C62.8092 180.015 64.6187 181.338 65.4117 183.307C66.2047 185.275 65.8198 187.481 64.4045 189.064L58.4825 195.69L60.5838 204.324C61.0866 206.386 60.3882 208.514 58.7603 209.877C57.1324 211.24 54.9132 211.555 52.9718 210.699L44.8369 207.115L37.2715 211.782C36.3729 212.335 35.3673 212.613 34.3632 212.613ZM42.5727 172.962C42.537 172.962 42.506 172.962 42.478 172.965C42.2297 172.983 41.6214 173.097 41.3374 173.788L37.543 183.031C37.2808 183.671 36.719 184.14 36.0424 184.287L26.2749 186.402C25.5439 186.56 25.3251 187.139 25.2646 187.381C25.2041 187.621 25.1249 188.235 25.6945 188.718L33.3157 195.182C33.8434 195.631 34.118 196.309 34.0482 196.997L33.041 206.938C32.965 207.681 33.4476 208.069 33.6587 208.2C33.8698 208.331 34.43 208.597 35.0662 208.204L43.5705 202.958C44.1587 202.593 44.8881 202.542 45.5228 202.823L54.6696 206.851C55.3524 207.151 55.8707 206.814 56.0616 206.653C56.2525 206.493 56.6761 206.043 56.5008 205.319L54.1373 195.61C53.9743 194.939 54.1512 194.228 54.6122 193.713L61.2713 186.264C61.7694 185.707 61.6065 185.109 61.5134 184.878C61.4202 184.647 61.1238 184.104 60.3789 184.048L50.4128 183.296C49.7222 183.243 49.103 182.855 48.7538 182.258L43.7242 173.625C43.389 173.049 42.8629 172.964 42.5758 172.964L42.5727 172.962Z" fill="#371A45"/>
<path d="M83.1821 3.807L88.2118 12.4402L98.1779 13.1926C101.016 13.4067 102.377 16.7824 100.481 18.9047L93.8218 26.3542L96.1853 36.061C96.8588 38.8255 94.0686 41.1633 91.463 40.0154L82.3178 35.9865L73.8135 41.2332C71.391 42.7271 68.3058 40.7972 68.5914 37.9645L69.5986 28.025L61.9788 21.5606C59.8078 19.7191 60.6923 16.1883 63.4748 15.5863L73.2424 13.4719L77.0383 4.22896C78.1199 1.59634 81.7513 1.34502 83.1837 3.80545L83.1821 3.807Z" fill="#FFD243"/>
<g opacity="0.2">
<path d="M100.479 18.9078L93.8203 26.3558L96.1823 36.061C96.8558 38.8286 94.0655 41.1618 91.4646 40.02L82.3178 35.9912L73.8088 41.2316C71.5726 42.6185 68.7621 41.0641 68.5806 38.5835C69.0849 38.5338 69.5893 38.3725 70.0735 38.0793L78.5762 32.8388L87.723 36.8677C90.3301 38.0095 93.1204 35.6762 92.4469 32.9086L90.0849 23.2034L96.7441 15.7554C97.4315 14.9844 97.6907 14.0459 97.6069 13.1492L98.1811 13.1911C101.019 13.4083 102.379 16.7855 100.479 18.9093V18.9078Z" fill="#371A45"/>
</g>
<g opacity="0.61">
<path d="M83.8401 4.94258C82.7118 5.10392 81.6597 5.80513 81.1553 7.03069L77.3563 16.272L67.5919 18.3881C64.8094 18.99 63.9264 22.5224 66.0912 24.3654L73.7172 30.8252L72.7084 40.7678C72.6727 41.0765 72.6867 41.3774 72.7364 41.6644C70.5777 42.1547 68.3492 40.3892 68.5866 37.9645L69.5954 28.0219L61.9756 21.5621C59.803 19.7191 60.686 16.1883 63.4686 15.5848L73.2392 13.4688L77.032 4.22742C78.1183 1.59944 81.7497 1.34812 83.179 3.807L83.8385 4.94258H83.8401Z" fill="white"/>
</g>
<path d="M72.007 43.8549C70.9906 43.8549 69.9741 43.571 69.0693 43.0063C67.2692 41.8801 66.2837 39.868 66.4979 37.7566L67.3933 28.9155L60.6163 23.1662C58.9977 21.7933 58.3117 19.6602 58.8269 17.6015C59.3422 15.5429 60.9515 13.9838 63.0279 13.5355L71.7153 11.6552L75.0906 3.43467C75.8976 1.47067 77.7133 0.159786 79.8316 0.0139599C81.9546 -0.12411 83.9301 0.916842 84.9978 2.75053L89.4719 10.4297L98.3347 11.0983C100.453 11.2581 102.261 12.5814 103.055 14.55C103.848 16.5187 103.464 18.7247 102.048 20.3071L96.1263 26.9329L98.2291 35.5661C98.7319 37.6294 98.032 39.7563 96.4041 41.1199C94.7762 42.482 92.557 42.7985 90.6156 41.9406L82.4822 38.357L74.9184 43.0234C74.0198 43.5772 73.0142 43.8549 72.0086 43.8549H72.007ZM80.2149 4.20414C80.1808 4.20414 80.1482 4.20414 80.1203 4.20724C79.872 4.22431 79.2636 4.33911 78.9796 5.031L75.1837 14.2739C74.9215 14.9146 74.3597 15.3831 73.6831 15.5305L63.9156 17.645C63.1846 17.8032 62.9658 18.3819 62.9053 18.6223C62.8448 18.8628 62.7656 19.4771 63.3351 19.9611L70.9564 26.4256C71.4841 26.8739 71.7572 27.5519 71.6874 28.2407L70.6802 38.1801C70.6057 38.9232 71.0883 39.311 71.2994 39.4429C71.5104 39.5763 72.0707 39.8416 72.7054 39.4476L81.2097 34.2009C81.7994 33.8363 82.5288 33.7867 83.1619 34.0659L92.3072 38.0948C92.9962 38.3957 93.5099 38.0576 93.6992 37.8978C93.8901 37.738 94.3153 37.2881 94.1384 36.5621L91.7749 26.8553C91.6119 26.1836 91.7888 25.4731 92.2497 24.958L98.9088 17.5085C99.407 16.9515 99.2441 16.3543 99.1509 16.1231C99.0578 15.892 98.7614 15.349 98.015 15.2931L88.0488 14.5407C87.3582 14.488 86.739 14.1002 86.3898 13.5029L81.3602 4.86966C81.025 4.29412 80.4989 4.20724 80.2118 4.20724L80.2149 4.20414Z" fill="#371A45"/>
</g>
<defs>
<clipPath id="clip0_1_11">
<rect width="402" height="458" fill="white"/>
</clipPath>
</defs>
</svg>
